#!OML:ASF F:\VICON\USERDATA\INSTALL\Justin_Nancy\Justin_Nancy.ASF
:FULLY-SPECIFIED
:DEGREES
1
root -10.8779 16.4215 -33.1786 4.03308 -14.3909 -6.66331
lowerback 17.5461 -1.91226 -0.263751
upperback 1.04943 -1.94752 7.59695
thorax -8.45216 -0.78992 9.00507
lowerneck -14.9695 1.49099 -14.242
upperneck 13.4893 4.59549 3.27198
head 6.18316 1.75923 3.76819
rclavicle 6.0033e-014 -6.36111e-015
rhumerus -44.9408 22.6451 -84.8719
rradius 98.6478
rwrist -7.05278
rhand -18.7365 28.7342
rfingers 7.12502
rthumb 7.5595 -1.11067
lclavicle 6.0033e-014 -6.36111e-015
lhumerus -47.3205 7.10147 90.6051
lradius 83.4782
lwrist 18.1343
lhand -21.8688 7.02409
lfingers 7.12502
lthumb 4.53542 36.9555
rfemur -31.0494 -1.38557 25.6923
rtibia 52.5286
rfoot -17.1181 -3.68072
rtoes -11.4238
lfemur -17.7684 4.92211 -22.5761
ltibia 95.6058
lfoot 2.1722 2.89992
ltoes -13.3138
2
root -10.8661 16.3648 -32.6315 4.21616 -14.1591 -7.91887
lowerback 17.9071 -2.04255 -0.0803422
upperback 0.935348 -1.97725 8.65191
thorax -8.74807 -0.77764 10.1676
lowerneck -14.107 1.85116 -14.9953
upperneck 13.0789 5.1537 2.79491
head 5.86022 1.97137 3.74309
rclavicle 7.67309e-014 3.18055e-015
rhumerus -43.3968 25.0435 -84.9729
rradius 98.7201
rwrist -6.05555
rhand -18.2421 28.9917
rfingers 7.12502
rthumb 8.0367 -0.835483
lclavicle 7.67309e-014 3.18055e-015
lhumerus -48.7746 9.46613 90.7468
lradius 82.638
lwrist 16.5344
lhand -23.1925 7.11728
lfingers 7.12502
lthumb 3.25718 37.0721
rfemur -28.6101 -0.598496 26.449
rtibia 52.3766
rfoot -18.6294 -5.88801
rtoes -14.4581
lfemur -20.9651 5.41256 -20.4049
ltibia 97.322
lfoot -1.67795 2.9579
ltoes -28.5857
3
root -10.8501 16.3256 -32.0813 4.26602 -13.6368 -8.58731
lowerback 18.4237 -2.88258 -0.75773
upperback 0.555477 -3.09601 9.87058
thorax -9.16154 -1.23807 12.3937
lowerneck -12.7134 2.8596 -16.6901
upperneck 12.5631 6.60991 2.40787
head 5.30658 2.59748 3.92245
rclavicle -2.66371e-014 -4.13472e-014
rhumerus -42.6698 29.7063 -85.6272
rradius 99.4313
rwrist -5.2611
rhand -18.2278 29.1305
rfingers 7.12502
rthumb 8.05044 -0.696202
lclavicle -2.66371e-014 -4.13472e-014
lhumerus -51.2753 13.9523 90.4081
lradius 82.6762
lwrist 15.727
lhand -22.4357 7.05227
lfingers 7.12502
lthumb 3.98802 36.9947
rfemur -26.0088 -0.091047 26.5605
rtibia 52.0337
rfoot -20.1991 -7.53243
rtoes -14.4827
lfemur -24.0354 5.22515 -18.9958
ltibia 98.2385
lfoot -3.37817 1.40992
ltoes -25.8977
4
root -10.8304 16.311 -31.5183 4.2942 -12.8552 -8.81044
lowerback 17.6382 -1.17665 2.30762
upperback 1.6539 -0.483817 7.75068
thorax -8.08592 -0.19115 7.28257
lowerneck -15.5546 0.203149 -12.9721
upperneck 13.3824 2.73049 2.88925
head 6.43662 0.894941 3.29213
rclavicle -3.97569e-016 -4.13472e-014
rhumerus -39.3348 21.9416 -86.2797
rradius 100.257
rwrist -3.87809
rhand -18.495 28.843
rfingers 7.12502
rthumb 7.79259 -0.99342
lclavicle -3.97569e-016 -4.13472e-014
lhumerus -48.8504 5.84837 90.1916
lradius 82.0503
lwrist 16.3845
lhand -21.7256 6.63084
lfingers 7.12502
lthumb 4.67378 36.5593
rfemur -23.3143 0.130988 26.2987
rtibia 51.4129
rfoot -21.5951 -9.28082
rtoes -17.9617
lfemur -27.1372 4.57205 -18.2614
ltibia 98.5592
lfoot -3.14128 -0.0913815
ltoes -11.9102
5
root -10.8107 16.2999 -30.9508 4.47164 -11.8769 -8.68764
lowerback 17.6809 -1.40599 1.50173
upperback 1.06849 -0.847362 8.31207
thorax -8.69659 -0.301706 8.52578
lowerneck -14.3192 0.471958 -13.7196
upperneck 13.5172 3.06815 2.89393
head 6.23719 1.01184 3.42653
rclavicle 3.02153e-014 -1.47896e-013
rhumerus -38.7449 24.5259 -86.7823
rradius 100.972
rwrist -4.30735
rhand -19.0275 28.4472
rfingers 7.12502
rthumb 7.2786 -1.4076
lclavicle 3.02153e-014 -1.47896e-013
lhumerus -51.3222 7.18959 90.6453
lradius 82.8923
lwrist 17.1287
lhand -21.1636 6.10489
lfingers 7.12502
lthumb 5.21635 36.0207
rfemur -20.723 0.344183 25.732
rtibia 50.5917
rfoot -22.6826 -10.8546
rtoes -20.213
lfemur -30.6801 4.15367 -18.2491
ltibia 98.3675
lfoot -1.87161 -0.15756
ltoes -3.97051
6
root -10.7924 16.3592 -30.3645 4.83353 -11.0126 -8.63631
lowerback 17.3584 -1.3968 1.16964
upperback 0.784643 -0.876991 8.53113
thorax -8.81918 -0.287169 8.98068
lowerneck -14.0526 0.412223 -13.8662
upperneck 13.6802 2.97239 2.94274
head 6.25062 0.954214 3.45696
rclavicle -3.57812e-015 -2.70347e-014
rhumerus -34.2507 27.7702 -86.9573
rradius 98.9182
rwrist -6.6089
rhand -21.0144 27.8199
rfingers 7.12502
rthumb 5.3604 -2.09226
lclavicle -3.57812e-015 -2.70347e-014
lhumerus -52.8567 7.31264 91.0467
lradius 83.8361
lwrist 18.4898
lhand -20.6477 6.10754
lfingers 7.12502
lthumb 5.71451 36.0105
rfemur -18 0.618281 25.2718
rtibia 49.2415
rfoot -23.2096 -12.0188
rtoes -21.5845
lfemur -33.9936 3.97978 -18.2217
ltibia 97.2848
lfoot -2.44653 0.998448
ltoes -7.34711
7
root -10.7635 16.383 -29.781 5.23103 -10.293 -8.89141
lowerback 16.7737 -1.32313 1.58377
upperback 0.675901 -0.722023 8.56045
thorax -8.63946 -0.231094 8.70038
lowerneck -13.7513 0.131352 -13.9401
upperneck 13.6459 2.51373 3.23663
head 6.22151 0.754485 3.52135
rclavicle -4.37326e-015 -3.49861e-014
rhumerus -33.4285 28.1648 -87.6929
rradius 99.8382
rwrist -8.22044
rhand -21.4066 27.8441
rfingers 7.12502
rthumb 4.98172 -2.07734
lclavicle -4.37326e-015 -3.49861e-014
lhumerus -54.045 6.92756 91.3026
lradius 84.9496
lwrist 20.4538
lhand -20.0324 6.6194
lfingers 7.12502
lthumb 6.30857 36.5055
rfemur -15.2946 0.98694 25.167
rtibia 47.7147
rfoot -22.8677 -12.9364
rtoes -24.7519
lfemur -37.2918 3.72143 -17.8859
ltibia 95.9735
lfoot -4.70153 3.16046
ltoes -14.0662
8
root -10.7274 16.4169 -29.1895 5.47395 -9.4117 -9.25964
lowerback 15.9336 0.681569 5.19174
upperback 1.98759 2.21577 5.9742
thorax -6.87054 1.00454 2.97904
lowerneck -19.1542 -2.88678 -9.49395
upperneck 15.1788 -2.03251 3.82828
head 7.98818 -1.13941 2.5723
rclavicle 2.127e-014 -5.64548e-014
rhumerus -32.714 17.3643 -88.8018
rradius 103.276
rwrist -7.95228
rhand -19.7177 28.4255
rfingers 7.12502
rthumb 6.61232 -1.4513
lclavicle 2.127e-014 -5.64548e-014
lhumerus -50.8218 -2.98142 90.8257
lradius 85.1211
lwrist 22.6007
lhand -19.0866 6.33282
lfingers 7.12502
lthumb 7.22157 36.1896
rfemur -12.2206 1.32903 25.2928
rtibia 45.8733
rfoot -21.5706 -13.7497
rtoes -28.3079
lfemur -40.0396 3.31079 -17.434
ltibia 94.0705
lfoot -5.56784 4.69597
ltoes -14.4919
9
root -10.6811 16.4791 -28.5871 5.55695 -8.51283 -9.49297
lowerback 15.7128 -0.104764 4.33859
upperback 1.01885 1.19052 7.1978
thorax -7.83107 0.549737 5.05018
lowerneck -14.9698 -2.04358 -11.654
upperneck 14.024 -0.857325 3.97643
head 6.82754 -0.693411 3.09945
rclavicle -1.76918e-014 -1.35174e-014
rhumerus -36.9691 20.158 -89.8239
rradius 106.585
rwrist -8.93034
rhand -18.5797 28.9559
rfingers 7.12502
rthumb 7.71082 -0.883558
lclavicle -1.76918e-014 -1.35174e-014
lhumerus -54.4873 0.537616 91.8769
lradius 86.3257
lwrist 22.7134
lhand -18.3625 5.82459
lfingers 7.12502
lthumb 7.92047 35.6562
rfemur -9.01253 1.59648 25.2729
rtibia 43.9589
rfoot -20.0045 -13.8994
rtoes -30.3699
lfemur -42.0504 2.66534 -17.1839
ltibia 91.4669
lfoot -5.68194 5.8856
ltoes -10.3241
10
root -10.6255 16.5583 -27.9777 5.58726 -7.64489 -9.65615
lowerback 15.3703 0.862036 6.06288
upperback 1.65921 2.59159 6.10317
thorax -6.88849 1.16536 2.55492
lowerneck -17.8373 -3.64972 -9.80328
upperneck 14.8377 -3.18926 4.16145
head 7.74157 -1.67968 2.59565
rclavicle -1.41137e-014 3.73715e-014
rhumerus -35.3972 16.5867 -90.1561
rradius 108.032
rwrist -9.38561
rhand -18.7945 29.3336
rfingers 7.12502
rthumb 7.50353 -0.513273
lclavicle -1.41137e-014 3.73715e-014
lhumerus -53.2767 -3.95763 92.127
lradius 86.5725
lwrist 23.0683
lhand -18.1131 6.03084
lfingers 7.12502
lthumb 8.16118 35.8532
rfemur -5.88007 2.01013 25.2083
rtibia 42.024
rfoot -18.2079 -13.631
rtoes -31.3238
lfemur -43.5682 1.95003 -17.0547
ltibia 88.1885
lfoot -6.12724 7.18645
ltoes -9.01025
11
root -10.5618 16.6426 -27.3583 5.56671 -6.9213 -9.70183
lowerback 15.2047 1.25391 6.70905
upperback 1.86537 3.15893 5.81107
thorax -6.52262 1.42906 1.76323
lowerneck -19.1857 -4.27304 -9.46432
upperneck 15.5252 -4.04925 4.40512
head 8.26359 -2.03749 2.50436
rclavicle 4.57205e-015 -1.27222e-014
rhumerus -34.8568 15.8394 -90.4115
rradius 109.296
rwrist -9.76821
rhand -18.5767 29.624
rfingers 7.12502
rthumb 7.71378 -0.215346
lclavicle 4.57205e-015 -1.27222e-014
lhumerus -53.327 -5.37334 92.6242
lradius 86.9737
lwrist 23.0061
lhand -18.0623 6.27124
lfingers 7.12502
lthumb 8.21023 36.0917
rfemur -2.80056 2.45826 24.9763
rtibia 40.0696
rfoot -15.7339 -12.8195
rtoes -31.8489
lfemur -44.6323 1.26787 -17.0674
ltibia 84.3306
lfoot -6.86031 8.19007
ltoes -9.42651
